<svg version="1.1"
 width="100" height="100"
 xmlns="http://www.w3.org/2000/svg">
	<circle cx="50" cy="50" r="50" fill="#073a60" />"
	<circle cx="50" cy="79.28932188134524" r="20.710678118654755" fill="#fea3a0" />"
	<circle cx="50" cy="91.42135623730951" r="8.578643762690497" fill="#49224d" />"
	<circle cx="50" cy="96.44660940672624" r="3.5533905932737633" fill="#015a6c" />"
	<circle cx="50" cy="98.52813742385703" r="1.4718625761429713" fill="#ffe8ff" />"
	<circle cx="50" cy="94.36508138959545" r="1.4718625761429713" fill="#ffe8ff" />"
	<circle cx="52.08152801713079" cy="96.44660940672624" r="1.4718625761429713" fill="#ffe8ff" />"
	<circle cx="47.91847198286921" cy="96.44660940672624" r="1.4718625761429713" fill="#ffe8ff" />"
	<circle cx="50" cy="86.39610306789278" r="3.5533905932737633" fill="#015a6c" />"
	<circle cx="50" cy="88.47763108502357" r="1.4718625761429713" fill="#ffe8ff" />"
	<circle cx="50" cy="84.31457505076199" r="1.4718625761429713" fill="#ffe8ff" />"
	<circle cx="52.08152801713079" cy="86.39610306789278" r="1.4718625761429713" fill="#ffe8ff" />"
	<circle cx="47.91847198286921" cy="86.39610306789278" r="1.4718625761429713" fill="#ffe8ff" />"
	<circle cx="55.025253169416736" cy="91.42135623730951" r="3.5533905932737633" fill="#015a6c" />"
	<circle cx="55.025253169416736" cy="93.5028842544403" r="1.4718625761429713" fill="#ffe8ff" />"
	<circle cx="55.025253169416736" cy="89.33982822017872" r="1.4718625761429713" fill="#ffe8ff" />"
	<circle cx="57.10678118654752" cy="91.42135623730951" r="1.4718625761429713" fill="#ffe8ff" />"
	<circle cx="52.94372515228595" cy="91.42135623730951" r="1.4718625761429713" fill="#ffe8ff" />"
	<circle cx="44.974746830583264" cy="91.42135623730951" r="3.5533905932737633" fill="#015a6c" />"
	<circle cx="44.974746830583264" cy="93.5028842544403" r="1.4718625761429713" fill="#ffe8ff" />"
	<circle cx="44.974746830583264" cy="89.33982822017872" r="1.4718625761429713" fill="#ffe8ff" />"
	<circle cx="47.05627484771405" cy="91.42135623730951" r="1.4718625761429713" fill="#ffe8ff" />"
	<circle cx="42.89321881345248" cy="91.42135623730951" r="1.4718625761429713" fill="#ffe8ff" />"
	<circle cx="50" cy="67.15728752538098" r="8.578643762690497" fill="#49224d" />"
	<circle cx="50" cy="72.18254069479771" r="3.5533905932737633" fill="#015a6c" />"
	<circle cx="50" cy="74.2640687119285" r="1.4718625761429713" fill="#ffe8ff" />"
	<circle cx="50" cy="70.10101267766692" r="1.4718625761429713" fill="#ffe8ff" />"
	<circle cx="52.08152801713079" cy="72.18254069479771" r="1.4718625761429713" fill="#ffe8ff" />"
	<circle cx="47.91847198286921" cy="72.18254069479771" r="1.4718625761429713" fill="#ffe8ff" />"
	<circle cx="50" cy="62.132034355964244" r="3.5533905932737633" fill="#015a6c" />"
	<circle cx="50" cy="64.21356237309504" r="1.4718625761429713" fill="#ffe8ff" />"
	<circle cx="50" cy="60.05050633883346" r="1.4718625761429713" fill="#ffe8ff" />"
	<circle cx="52.08152801713079" cy="62.132034355964244" r="1.4718625761429713" fill="#ffe8ff" />"
	<circle cx="47.91847198286921" cy="62.132034355964244" r="1.4718625761429713" fill="#ffe8ff" />"
	<circle cx="55.025253169416736" cy="67.15728752538098" r="3.5533905932737633" fill="#015a6c" />"
	<circle cx="55.025253169416736" cy="69.23881554251177" r="1.4718625761429713" fill="#ffe8ff" />"
	<circle cx="55.025253169416736" cy="65.07575950825019" r="1.4718625761429713" fill="#ffe8ff" />"
	<circle cx="57.10678118654752" cy="67.15728752538098" r="1.4718625761429713" fill="#ffe8ff" />"
	<circle cx="52.94372515228595" cy="67.15728752538098" r="1.4718625761429713" fill="#ffe8ff" />"
	<circle cx="44.974746830583264" cy="67.15728752538098" r="3.5533905932737633" fill="#015a6c" />"
	<circle cx="44.974746830583264" cy="69.23881554251177" r="1.4718625761429713" fill="#ffe8ff" />"
	<circle cx="44.974746830583264" cy="65.07575950825019" r="1.4718625761429713" fill="#ffe8ff" />"
	<circle cx="47.05627484771405" cy="67.15728752538098" r="1.4718625761429713" fill="#ffe8ff" />"
	<circle cx="42.89321881345248" cy="67.15728752538098" r="1.4718625761429713" fill="#ffe8ff" />"
	<circle cx="62.13203435596426" cy="79.28932188134524" r="8.578643762690497" fill="#49224d" />"
	<circle cx="62.13203435596426" cy="84.31457505076197" r="3.5533905932737633" fill="#015a6c" />"
	<circle cx="62.13203435596426" cy="86.39610306789277" r="1.4718625761429713" fill="#ffe8ff" />"
	<circle cx="62.13203435596426" cy="82.23304703363118" r="1.4718625761429713" fill="#ffe8ff" />"
	<circle cx="64.21356237309506" cy="84.31457505076197" r="1.4718625761429713" fill="#ffe8ff" />"
	<circle cx="60.05050633883347" cy="84.31457505076197" r="1.4718625761429713" fill="#ffe8ff" />"
	<circle cx="62.13203435596426" cy="74.26406871192852" r="3.5533905932737633" fill="#015a6c" />"
	<circle cx="62.13203435596426" cy="76.34559672905931" r="1.4718625761429713" fill="#ffe8ff" />"
	<circle cx="62.13203435596426" cy="72.18254069479772" r="1.4718625761429713" fill="#ffe8ff" />"
	<circle cx="64.21356237309506" cy="74.26406871192852" r="1.4718625761429713" fill="#ffe8ff" />"
	<circle cx="60.05050633883347" cy="74.26406871192852" r="1.4718625761429713" fill="#ffe8ff" />"
	<circle cx="67.157287525381" cy="79.28932188134524" r="3.5533905932737633" fill="#015a6c" />"
	<circle cx="67.157287525381" cy="81.37084989847604" r="1.4718625761429713" fill="#ffe8ff" />"
	<circle cx="67.157287525381" cy="77.20779386421445" r="1.4718625761429713" fill="#ffe8ff" />"
	<circle cx="69.23881554251179" cy="79.28932188134524" r="1.4718625761429713" fill="#ffe8ff" />"
	<circle cx="65.0757595082502" cy="79.28932188134524" r="1.4718625761429713" fill="#ffe8ff" />"
	<circle cx="57.10678118654752" cy="79.28932188134524" r="3.5533905932737633" fill="#015a6c" />"
	<circle cx="57.10678118654752" cy="81.37084989847604" r="1.4718625761429713" fill="#ffe8ff" />"
	<circle cx="57.10678118654752" cy="77.20779386421445" r="1.4718625761429713" fill="#ffe8ff" />"
	<circle cx="59.188309203678315" cy="79.28932188134524" r="1.4718625761429713" fill="#ffe8ff" />"
	<circle cx="55.02525316941673" cy="79.28932188134524" r="1.4718625761429713" fill="#ffe8ff" />"
	<circle cx="37.86796564403574" cy="79.28932188134524" r="8.578643762690497" fill="#49224d" />"
	<circle cx="37.86796564403574" cy="84.31457505076197" r="3.5533905932737633" fill="#015a6c" />"
	<circle cx="37.86796564403574" cy="86.39610306789277" r="1.4718625761429713" fill="#ffe8ff" />"
	<circle cx="37.86796564403574" cy="82.23304703363118" r="1.4718625761429713" fill="#ffe8ff" />"
	<circle cx="39.94949366116653" cy="84.31457505076197" r="1.4718625761429713" fill="#ffe8ff" />"
	<circle cx="35.786437626904956" cy="84.31457505076197" r="1.4718625761429713" fill="#ffe8ff" />"
	<circle cx="37.86796564403574" cy="74.26406871192852" r="3.5533905932737633" fill="#015a6c" />"
	<circle cx="37.86796564403574" cy="76.34559672905931" r="1.4718625761429713" fill="#ffe8ff" />"
	<circle cx="37.86796564403574" cy="72.18254069479772" r="1.4718625761429713" fill="#ffe8ff" />"
	<circle cx="39.94949366116653" cy="74.26406871192852" r="1.4718625761429713" fill="#ffe8ff" />"
	<circle cx="35.786437626904956" cy="74.26406871192852" r="1.4718625761429713" fill="#ffe8ff" />"
	<circle cx="42.89321881345248" cy="79.28932188134524" r="3.5533905932737633" fill="#015a6c" />"
	<circle cx="42.89321881345248" cy="81.37084989847604" r="1.4718625761429713" fill="#ffe8ff" />"
	<circle cx="42.89321881345248" cy="77.20779386421445" r="1.4718625761429713" fill="#ffe8ff" />"
	<circle cx="44.97474683058327" cy="79.28932188134524" r="1.4718625761429713" fill="#ffe8ff" />"
	<circle cx="40.811690796321685" cy="79.28932188134524" r="1.4718625761429713" fill="#ffe8ff" />"
	<circle cx="32.842712474619006" cy="79.28932188134524" r="3.5533905932737633" fill="#015a6c" />"
	<circle cx="32.842712474619006" cy="81.37084989847604" r="1.4718625761429713" fill="#ffe8ff" />"
	<circle cx="32.842712474619006" cy="77.20779386421445" r="1.4718625761429713" fill="#ffe8ff" />"
	<circle cx="34.9242404917498" cy="79.28932188134524" r="1.4718625761429713" fill="#ffe8ff" />"
	<circle cx="30.761184457488213" cy="79.28932188134524" r="1.4718625761429713" fill="#ffe8ff" />"
	<circle cx="50" cy="20.710678118654755" r="20.710678118654755" fill="#fea3a0" />"
	<circle cx="50" cy="32.84271247461901" r="8.578643762690497" fill="#49224d" />"
	<circle cx="50" cy="37.86796564403575" r="3.5533905932737633" fill="#015a6c" />"
	<circle cx="50" cy="39.94949366116654" r="1.4718625761429713" fill="#ffe8ff" />"
	<circle cx="50" cy="35.786437626904956" r="1.4718625761429713" fill="#ffe8ff" />"
	<circle cx="52.08152801713079" cy="37.86796564403575" r="1.4718625761429713" fill="#ffe8ff" />"
	<circle cx="47.91847198286921" cy="37.86796564403575" r="1.4718625761429713" fill="#ffe8ff" />"
	<circle cx="50" cy="27.81745930520228" r="3.5533905932737633" fill="#015a6c" />"
	<circle cx="50" cy="29.898987322333074" r="1.4718625761429713" fill="#ffe8ff" />"
	<circle cx="50" cy="25.735931288071487" r="1.4718625761429713" fill="#ffe8ff" />"
	<circle cx="52.08152801713079" cy="27.81745930520228" r="1.4718625761429713" fill="#ffe8ff" />"
	<circle cx="47.91847198286921" cy="27.81745930520228" r="1.4718625761429713" fill="#ffe8ff" />"
	<circle cx="55.025253169416736" cy="32.84271247461901" r="3.5533905932737633" fill="#015a6c" />"
	<circle cx="55.025253169416736" cy="34.9242404917498" r="1.4718625761429713" fill="#ffe8ff" />"
	<circle cx="55.025253169416736" cy="30.76118445748822" r="1.4718625761429713" fill="#ffe8ff" />"
	<circle cx="57.10678118654752" cy="32.84271247461901" r="1.4718625761429713" fill="#ffe8ff" />"
	<circle cx="52.94372515228595" cy="32.84271247461901" r="1.4718625761429713" fill="#ffe8ff" />"
	<circle cx="44.974746830583264" cy="32.84271247461901" r="3.5533905932737633" fill="#015a6c" />"
	<circle cx="44.974746830583264" cy="34.9242404917498" r="1.4718625761429713" fill="#ffe8ff" />"
	<circle cx="44.974746830583264" cy="30.76118445748822" r="1.4718625761429713" fill="#ffe8ff" />"
	<circle cx="47.05627484771405" cy="32.84271247461901" r="1.4718625761429713" fill="#ffe8ff" />"
	<circle cx="42.89321881345248" cy="32.84271247461901" r="1.4718625761429713" fill="#ffe8ff" />"
	<circle cx="50" cy="8.578643762690497" r="8.578643762690497" fill="#49224d" />"
	<circle cx="50" cy="13.603896932107231" r="3.5533905932737633" fill="#015a6c" />"
	<circle cx="50" cy="15.685424949238023" r="1.4718625761429713" fill="#ffe8ff" />"
	<circle cx="50" cy="11.52236891497644" r="1.4718625761429713" fill="#ffe8ff" />"
	<circle cx="52.08152801713079" cy="13.603896932107231" r="1.4718625761429713" fill="#ffe8ff" />"
	<circle cx="47.91847198286921" cy="13.603896932107231" r="1.4718625761429713" fill="#ffe8ff" />"
	<circle cx="50" cy="3.5533905932737633" r="3.5533905932737633" fill="#015a6c" />"
	<circle cx="50" cy="5.634918610404555" r="1.4718625761429713" fill="#ffe8ff" />"
	<circle cx="50" cy="1.4718625761429713" r="1.4718625761429713" fill="#ffe8ff" />"
	<circle cx="52.08152801713079" cy="3.5533905932737633" r="1.4718625761429713" fill="#ffe8ff" />"
	<circle cx="47.91847198286921" cy="3.5533905932737633" r="1.4718625761429713" fill="#ffe8ff" />"
	<circle cx="55.025253169416736" cy="8.578643762690497" r="3.5533905932737633" fill="#015a6c" />"
	<circle cx="55.025253169416736" cy="10.660171779821288" r="1.4718625761429713" fill="#ffe8ff" />"
	<circle cx="55.025253169416736" cy="6.4971157455597055" r="1.4718625761429713" fill="#ffe8ff" />"
	<circle cx="57.10678118654752" cy="8.578643762690497" r="1.4718625761429713" fill="#ffe8ff" />"
	<circle cx="52.94372515228595" cy="8.578643762690497" r="1.4718625761429713" fill="#ffe8ff" />"
	<circle cx="44.974746830583264" cy="8.578643762690497" r="3.5533905932737633" fill="#015a6c" />"
	<circle cx="44.974746830583264" cy="10.660171779821288" r="1.4718625761429713" fill="#ffe8ff" />"
	<circle cx="44.974746830583264" cy="6.4971157455597055" r="1.4718625761429713" fill="#ffe8ff" />"
	<circle cx="47.05627484771405" cy="8.578643762690497" r="1.4718625761429713" fill="#ffe8ff" />"
	<circle cx="42.89321881345248" cy="8.578643762690497" r="1.4718625761429713" fill="#ffe8ff" />"
	<circle cx="62.13203435596426" cy="20.710678118654755" r="8.578643762690497" fill="#49224d" />"
	<circle cx="62.13203435596426" cy="25.735931288071487" r="3.5533905932737633" fill="#015a6c" />"
	<circle cx="62.13203435596426" cy="27.81745930520228" r="1.4718625761429713" fill="#ffe8ff" />"
	<circle cx="62.13203435596426" cy="23.654403270940694" r="1.4718625761429713" fill="#ffe8ff" />"
	<circle cx="64.21356237309506" cy="25.735931288071487" r="1.4718625761429713" fill="#ffe8ff" />"
	<circle cx="60.05050633883347" cy="25.735931288071487" r="1.4718625761429713" fill="#ffe8ff" />"
	<circle cx="62.13203435596426" cy="15.68542494923802" r="3.5533905932737633" fill="#015a6c" />"
	<circle cx="62.13203435596426" cy="17.766952966368812" r="1.4718625761429713" fill="#ffe8ff" />"
	<circle cx="62.13203435596426" cy="13.60389693210723" r="1.4718625761429713" fill="#ffe8ff" />"
	<circle cx="64.21356237309506" cy="15.68542494923802" r="1.4718625761429713" fill="#ffe8ff" />"
	<circle cx="60.05050633883347" cy="15.68542494923802" r="1.4718625761429713" fill="#ffe8ff" />"
	<circle cx="67.157287525381" cy="20.710678118654755" r="3.5533905932737633" fill="#015a6c" />"
	<circle cx="67.157287525381" cy="22.79220613578555" r="1.4718625761429713" fill="#ffe8ff" />"
	<circle cx="67.157287525381" cy="18.629150101523962" r="1.4718625761429713" fill="#ffe8ff" />"
	<circle cx="69.23881554251179" cy="20.710678118654755" r="1.4718625761429713" fill="#ffe8ff" />"
	<circle cx="65.0757595082502" cy="20.710678118654755" r="1.4718625761429713" fill="#ffe8ff" />"
	<circle cx="57.10678118654752" cy="20.710678118654755" r="3.5533905932737633" fill="#015a6c" />"
	<circle cx="57.10678118654752" cy="22.79220613578555" r="1.4718625761429713" fill="#ffe8ff" />"
	<circle cx="57.10678118654752" cy="18.629150101523962" r="1.4718625761429713" fill="#ffe8ff" />"
	<circle cx="59.188309203678315" cy="20.710678118654755" r="1.4718625761429713" fill="#ffe8ff" />"
	<circle cx="55.02525316941673" cy="20.710678118654755" r="1.4718625761429713" fill="#ffe8ff" />"
	<circle cx="37.86796564403574" cy="20.710678118654755" r="8.578643762690497" fill="#49224d" />"
	<circle cx="37.86796564403574" cy="25.735931288071487" r="3.5533905932737633" fill="#015a6c" />"
	<circle cx="37.86796564403574" cy="27.81745930520228" r="1.4718625761429713" fill="#ffe8ff" />"
	<circle cx="37.86796564403574" cy="23.654403270940694" r="1.4718625761429713" fill="#ffe8ff" />"
	<circle cx="39.94949366116653" cy="25.735931288071487" r="1.4718625761429713" fill="#ffe8ff" />"
	<circle cx="35.786437626904956" cy="25.735931288071487" r="1.4718625761429713" fill="#ffe8ff" />"
	<circle cx="37.86796564403574" cy="15.68542494923802" r="3.5533905932737633" fill="#015a6c" />"
	<circle cx="37.86796564403574" cy="17.766952966368812" r="1.4718625761429713" fill="#ffe8ff" />"
	<circle cx="37.86796564403574" cy="13.60389693210723" r="1.4718625761429713" fill="#ffe8ff" />"
	<circle cx="39.94949366116653" cy="15.68542494923802" r="1.4718625761429713" fill="#ffe8ff" />"
	<circle cx="35.786437626904956" cy="15.68542494923802" r="1.4718625761429713" fill="#ffe8ff" />"
	<circle cx="42.89321881345248" cy="20.710678118654755" r="3.5533905932737633" fill="#015a6c" />"
	<circle cx="42.89321881345248" cy="22.79220613578555" r="1.4718625761429713" fill="#ffe8ff" />"
	<circle cx="42.89321881345248" cy="18.629150101523962" r="1.4718625761429713" fill="#ffe8ff" />"
	<circle cx="44.97474683058327" cy="20.710678118654755" r="1.4718625761429713" fill="#ffe8ff" />"
	<circle cx="40.811690796321685" cy="20.710678118654755" r="1.4718625761429713" fill="#ffe8ff" />"
	<circle cx="32.842712474619006" cy="20.710678118654755" r="3.5533905932737633" fill="#015a6c" />"
	<circle cx="32.842712474619006" cy="22.79220613578555" r="1.4718625761429713" fill="#ffe8ff" />"
	<circle cx="32.842712474619006" cy="18.629150101523962" r="1.4718625761429713" fill="#ffe8ff" />"
	<circle cx="34.9242404917498" cy="20.710678118654755" r="1.4718625761429713" fill="#ffe8ff" />"
	<circle cx="30.761184457488213" cy="20.710678118654755" r="1.4718625761429713" fill="#ffe8ff" />"
	<circle cx="79.28932188134524" cy="50" r="20.710678118654755" fill="#fea3a0" />"
	<circle cx="79.28932188134524" cy="62.13203435596426" r="8.578643762690497" fill="#49224d" />"
	<circle cx="79.28932188134524" cy="67.157287525381" r="3.5533905932737633" fill="#015a6c" />"
	<circle cx="79.28932188134524" cy="69.23881554251179" r="1.4718625761429713" fill="#ffe8ff" />"
	<circle cx="79.28932188134524" cy="65.0757595082502" r="1.4718625761429713" fill="#ffe8ff" />"
	<circle cx="81.37084989847604" cy="67.157287525381" r="1.4718625761429713" fill="#ffe8ff" />"
	<circle cx="77.20779386421445" cy="67.157287525381" r="1.4718625761429713" fill="#ffe8ff" />"
	<circle cx="79.28932188134524" cy="57.10678118654752" r="3.5533905932737633" fill="#015a6c" />"
	<circle cx="79.28932188134524" cy="59.188309203678315" r="1.4718625761429713" fill="#ffe8ff" />"
	<circle cx="79.28932188134524" cy="55.02525316941673" r="1.4718625761429713" fill="#ffe8ff" />"
	<circle cx="81.37084989847604" cy="57.10678118654752" r="1.4718625761429713" fill="#ffe8ff" />"
	<circle cx="77.20779386421445" cy="57.10678118654752" r="1.4718625761429713" fill="#ffe8ff" />"
	<circle cx="84.31457505076197" cy="62.13203435596426" r="3.5533905932737633" fill="#015a6c" />"
	<circle cx="84.31457505076197" cy="64.21356237309506" r="1.4718625761429713" fill="#ffe8ff" />"
	<circle cx="84.31457505076197" cy="60.05050633883347" r="1.4718625761429713" fill="#ffe8ff" />"
	<circle cx="86.39610306789277" cy="62.13203435596426" r="1.4718625761429713" fill="#ffe8ff" />"
	<circle cx="82.23304703363118" cy="62.13203435596426" r="1.4718625761429713" fill="#ffe8ff" />"
	<circle cx="74.26406871192852" cy="62.13203435596426" r="3.5533905932737633" fill="#015a6c" />"
	<circle cx="74.26406871192852" cy="64.21356237309506" r="1.4718625761429713" fill="#ffe8ff" />"
	<circle cx="74.26406871192852" cy="60.05050633883347" r="1.4718625761429713" fill="#ffe8ff" />"
	<circle cx="76.34559672905931" cy="62.13203435596426" r="1.4718625761429713" fill="#ffe8ff" />"
	<circle cx="72.18254069479772" cy="62.13203435596426" r="1.4718625761429713" fill="#ffe8ff" />"
	<circle cx="79.28932188134524" cy="37.86796564403574" r="8.578643762690497" fill="#49224d" />"
	<circle cx="79.28932188134524" cy="42.89321881345248" r="3.5533905932737633" fill="#015a6c" />"
	<circle cx="79.28932188134524" cy="44.97474683058327" r="1.4718625761429713" fill="#ffe8ff" />"
	<circle cx="79.28932188134524" cy="40.811690796321685" r="1.4718625761429713" fill="#ffe8ff" />"
	<circle cx="81.37084989847604" cy="42.89321881345248" r="1.4718625761429713" fill="#ffe8ff" />"
	<circle cx="77.20779386421445" cy="42.89321881345248" r="1.4718625761429713" fill="#ffe8ff" />"
	<circle cx="79.28932188134524" cy="32.842712474619006" r="3.5533905932737633" fill="#015a6c" />"
	<circle cx="79.28932188134524" cy="34.9242404917498" r="1.4718625761429713" fill="#ffe8ff" />"
	<circle cx="79.28932188134524" cy="30.761184457488213" r="1.4718625761429713" fill="#ffe8ff" />"
	<circle cx="81.37084989847604" cy="32.842712474619006" r="1.4718625761429713" fill="#ffe8ff" />"
	<circle cx="77.20779386421445" cy="32.842712474619006" r="1.4718625761429713" fill="#ffe8ff" />"
	<circle cx="84.31457505076197" cy="37.86796564403574" r="3.5533905932737633" fill="#015a6c" />"
	<circle cx="84.31457505076197" cy="39.94949366116653" r="1.4718625761429713" fill="#ffe8ff" />"
	<circle cx="84.31457505076197" cy="35.786437626904956" r="1.4718625761429713" fill="#ffe8ff" />"
	<circle cx="86.39610306789277" cy="37.86796564403574" r="1.4718625761429713" fill="#ffe8ff" />"
	<circle cx="82.23304703363118" cy="37.86796564403574" r="1.4718625761429713" fill="#ffe8ff" />"
	<circle cx="74.26406871192852" cy="37.86796564403574" r="3.5533905932737633" fill="#015a6c" />"
	<circle cx="74.26406871192852" cy="39.94949366116653" r="1.4718625761429713" fill="#ffe8ff" />"
	<circle cx="74.26406871192852" cy="35.786437626904956" r="1.4718625761429713" fill="#ffe8ff" />"
	<circle cx="76.34559672905931" cy="37.86796564403574" r="1.4718625761429713" fill="#ffe8ff" />"
	<circle cx="72.18254069479772" cy="37.86796564403574" r="1.4718625761429713" fill="#ffe8ff" />"
	<circle cx="91.42135623730951" cy="50" r="8.578643762690497" fill="#49224d" />"
	<circle cx="91.42135623730951" cy="55.025253169416736" r="3.5533905932737633" fill="#015a6c" />"
	<circle cx="91.42135623730951" cy="57.10678118654752" r="1.4718625761429713" fill="#ffe8ff" />"
	<circle cx="91.42135623730951" cy="52.94372515228595" r="1.4718625761429713" fill="#ffe8ff" />"
	<circle cx="93.5028842544403" cy="55.025253169416736" r="1.4718625761429713" fill="#ffe8ff" />"
	<circle cx="89.33982822017872" cy="55.025253169416736" r="1.4718625761429713" fill="#ffe8ff" />"
	<circle cx="91.42135623730951" cy="44.974746830583264" r="3.5533905932737633" fill="#015a6c" />"
	<circle cx="91.42135623730951" cy="47.05627484771405" r="1.4718625761429713" fill="#ffe8ff" />"
	<circle cx="91.42135623730951" cy="42.89321881345248" r="1.4718625761429713" fill="#ffe8ff" />"
	<circle cx="93.5028842544403" cy="44.974746830583264" r="1.4718625761429713" fill="#ffe8ff" />"
	<circle cx="89.33982822017872" cy="44.974746830583264" r="1.4718625761429713" fill="#ffe8ff" />"
	<circle cx="96.44660940672624" cy="50" r="3.5533905932737633" fill="#015a6c" />"
	<circle cx="96.44660940672624" cy="52.08152801713079" r="1.4718625761429713" fill="#ffe8ff" />"
	<circle cx="96.44660940672624" cy="47.91847198286921" r="1.4718625761429713" fill="#ffe8ff" />"
	<circle cx="98.52813742385703" cy="50" r="1.4718625761429713" fill="#ffe8ff" />"
	<circle cx="94.36508138959545" cy="50" r="1.4718625761429713" fill="#ffe8ff" />"
	<circle cx="86.39610306789278" cy="50" r="3.5533905932737633" fill="#015a6c" />"
	<circle cx="86.39610306789278" cy="52.08152801713079" r="1.4718625761429713" fill="#ffe8ff" />"
	<circle cx="86.39610306789278" cy="47.91847198286921" r="1.4718625761429713" fill="#ffe8ff" />"
	<circle cx="88.47763108502357" cy="50" r="1.4718625761429713" fill="#ffe8ff" />"
	<circle cx="84.31457505076199" cy="50" r="1.4718625761429713" fill="#ffe8ff" />"
	<circle cx="67.15728752538098" cy="50" r="8.578643762690497" fill="#49224d" />"
	<circle cx="67.15728752538098" cy="55.025253169416736" r="3.5533905932737633" fill="#015a6c" />"
	<circle cx="67.15728752538098" cy="57.10678118654752" r="1.4718625761429713" fill="#ffe8ff" />"
	<circle cx="67.15728752538098" cy="52.94372515228595" r="1.4718625761429713" fill="#ffe8ff" />"
	<circle cx="69.23881554251177" cy="55.025253169416736" r="1.4718625761429713" fill="#ffe8ff" />"
	<circle cx="65.07575950825019" cy="55.025253169416736" r="1.4718625761429713" fill="#ffe8ff" />"
	<circle cx="67.15728752538098" cy="44.974746830583264" r="3.5533905932737633" fill="#015a6c" />"
	<circle cx="67.15728752538098" cy="47.05627484771405" r="1.4718625761429713" fill="#ffe8ff" />"
	<circle cx="67.15728752538098" cy="42.89321881345248" r="1.4718625761429713" fill="#ffe8ff" />"
	<circle cx="69.23881554251177" cy="44.974746830583264" r="1.4718625761429713" fill="#ffe8ff" />"
	<circle cx="65.07575950825019" cy="44.974746830583264" r="1.4718625761429713" fill="#ffe8ff" />"
	<circle cx="72.18254069479771" cy="50" r="3.5533905932737633" fill="#015a6c" />"
	<circle cx="72.18254069479771" cy="52.08152801713079" r="1.4718625761429713" fill="#ffe8ff" />"
	<circle cx="72.18254069479771" cy="47.91847198286921" r="1.4718625761429713" fill="#ffe8ff" />"
	<circle cx="74.2640687119285" cy="50" r="1.4718625761429713" fill="#ffe8ff" />"
	<circle cx="70.10101267766692" cy="50" r="1.4718625761429713" fill="#ffe8ff" />"
	<circle cx="62.132034355964244" cy="50" r="3.5533905932737633" fill="#015a6c" />"
	<circle cx="62.132034355964244" cy="52.08152801713079" r="1.4718625761429713" fill="#ffe8ff" />"
	<circle cx="62.132034355964244" cy="47.91847198286921" r="1.4718625761429713" fill="#ffe8ff" />"
	<circle cx="64.21356237309504" cy="50" r="1.4718625761429713" fill="#ffe8ff" />"
	<circle cx="60.05050633883346" cy="50" r="1.4718625761429713" fill="#ffe8ff" />"
	<circle cx="20.710678118654755" cy="50" r="20.710678118654755" fill="#fea3a0" />"
	<circle cx="20.710678118654755" cy="62.13203435596426" r="8.578643762690497" fill="#49224d" />"
	<circle cx="20.710678118654755" cy="67.157287525381" r="3.5533905932737633" fill="#015a6c" />"
	<circle cx="20.710678118654755" cy="69.23881554251179" r="1.4718625761429713" fill="#ffe8ff" />"
	<circle cx="20.710678118654755" cy="65.0757595082502" r="1.4718625761429713" fill="#ffe8ff" />"
	<circle cx="22.79220613578555" cy="67.157287525381" r="1.4718625761429713" fill="#ffe8ff" />"
	<circle cx="18.629150101523962" cy="67.157287525381" r="1.4718625761429713" fill="#ffe8ff" />"
	<circle cx="20.710678118654755" cy="57.10678118654752" r="3.5533905932737633" fill="#015a6c" />"
	<circle cx="20.710678118654755" cy="59.188309203678315" r="1.4718625761429713" fill="#ffe8ff" />"
	<circle cx="20.710678118654755" cy="55.02525316941673" r="1.4718625761429713" fill="#ffe8ff" />"
	<circle cx="22.79220613578555" cy="57.10678118654752" r="1.4718625761429713" fill="#ffe8ff" />"
	<circle cx="18.629150101523962" cy="57.10678118654752" r="1.4718625761429713" fill="#ffe8ff" />"
	<circle cx="25.735931288071487" cy="62.13203435596426" r="3.5533905932737633" fill="#015a6c" />"
	<circle cx="25.735931288071487" cy="64.21356237309506" r="1.4718625761429713" fill="#ffe8ff" />"
	<circle cx="25.735931288071487" cy="60.05050633883347" r="1.4718625761429713" fill="#ffe8ff" />"
	<circle cx="27.81745930520228" cy="62.13203435596426" r="1.4718625761429713" fill="#ffe8ff" />"
	<circle cx="23.654403270940694" cy="62.13203435596426" r="1.4718625761429713" fill="#ffe8ff" />"
	<circle cx="15.68542494923802" cy="62.13203435596426" r="3.5533905932737633" fill="#015a6c" />"
	<circle cx="15.68542494923802" cy="64.21356237309506" r="1.4718625761429713" fill="#ffe8ff" />"
	<circle cx="15.68542494923802" cy="60.05050633883347" r="1.4718625761429713" fill="#ffe8ff" />"
	<circle cx="17.766952966368812" cy="62.13203435596426" r="1.4718625761429713" fill="#ffe8ff" />"
	<circle cx="13.60389693210723" cy="62.13203435596426" r="1.4718625761429713" fill="#ffe8ff" />"
	<circle cx="20.710678118654755" cy="37.86796564403574" r="8.578643762690497" fill="#49224d" />"
	<circle cx="20.710678118654755" cy="42.89321881345248" r="3.5533905932737633" fill="#015a6c" />"
	<circle cx="20.710678118654755" cy="44.97474683058327" r="1.4718625761429713" fill="#ffe8ff" />"
	<circle cx="20.710678118654755" cy="40.811690796321685" r="1.4718625761429713" fill="#ffe8ff" />"
	<circle cx="22.79220613578555" cy="42.89321881345248" r="1.4718625761429713" fill="#ffe8ff" />"
	<circle cx="18.629150101523962" cy="42.89321881345248" r="1.4718625761429713" fill="#ffe8ff" />"
	<circle cx="20.710678118654755" cy="32.842712474619006" r="3.5533905932737633" fill="#015a6c" />"
	<circle cx="20.710678118654755" cy="34.9242404917498" r="1.4718625761429713" fill="#ffe8ff" />"
	<circle cx="20.710678118654755" cy="30.761184457488213" r="1.4718625761429713" fill="#ffe8ff" />"
	<circle cx="22.79220613578555" cy="32.842712474619006" r="1.4718625761429713" fill="#ffe8ff" />"
	<circle cx="18.629150101523962" cy="32.842712474619006" r="1.4718625761429713" fill="#ffe8ff" />"
	<circle cx="25.735931288071487" cy="37.86796564403574" r="3.5533905932737633" fill="#015a6c" />"
	<circle cx="25.735931288071487" cy="39.94949366116653" r="1.4718625761429713" fill="#ffe8ff" />"
	<circle cx="25.735931288071487" cy="35.786437626904956" r="1.4718625761429713" fill="#ffe8ff" />"
	<circle cx="27.81745930520228" cy="37.86796564403574" r="1.4718625761429713" fill="#ffe8ff" />"
	<circle cx="23.654403270940694" cy="37.86796564403574" r="1.4718625761429713" fill="#ffe8ff" />"
	<circle cx="15.68542494923802" cy="37.86796564403574" r="3.5533905932737633" fill="#015a6c" />"
	<circle cx="15.68542494923802" cy="39.94949366116653" r="1.4718625761429713" fill="#ffe8ff" />"
	<circle cx="15.68542494923802" cy="35.786437626904956" r="1.4718625761429713" fill="#ffe8ff" />"
	<circle cx="17.766952966368812" cy="37.86796564403574" r="1.4718625761429713" fill="#ffe8ff" />"
	<circle cx="13.60389693210723" cy="37.86796564403574" r="1.4718625761429713" fill="#ffe8ff" />"
	<circle cx="32.84271247461901" cy="50" r="8.578643762690497" fill="#49224d" />"
	<circle cx="32.84271247461901" cy="55.025253169416736" r="3.5533905932737633" fill="#015a6c" />"
	<circle cx="32.84271247461901" cy="57.10678118654752" r="1.4718625761429713" fill="#ffe8ff" />"
	<circle cx="32.84271247461901" cy="52.94372515228595" r="1.4718625761429713" fill="#ffe8ff" />"
	<circle cx="34.9242404917498" cy="55.025253169416736" r="1.4718625761429713" fill="#ffe8ff" />"
	<circle cx="30.76118445748822" cy="55.025253169416736" r="1.4718625761429713" fill="#ffe8ff" />"
	<circle cx="32.84271247461901" cy="44.974746830583264" r="3.5533905932737633" fill="#015a6c" />"
	<circle cx="32.84271247461901" cy="47.05627484771405" r="1.4718625761429713" fill="#ffe8ff" />"
	<circle cx="32.84271247461901" cy="42.89321881345248" r="1.4718625761429713" fill="#ffe8ff" />"
	<circle cx="34.9242404917498" cy="44.974746830583264" r="1.4718625761429713" fill="#ffe8ff" />"
	<circle cx="30.76118445748822" cy="44.974746830583264" r="1.4718625761429713" fill="#ffe8ff" />"
	<circle cx="37.86796564403575" cy="50" r="3.5533905932737633" fill="#015a6c" />"
	<circle cx="37.86796564403575" cy="52.08152801713079" r="1.4718625761429713" fill="#ffe8ff" />"
	<circle cx="37.86796564403575" cy="47.91847198286921" r="1.4718625761429713" fill="#ffe8ff" />"
	<circle cx="39.94949366116654" cy="50" r="1.4718625761429713" fill="#ffe8ff" />"
	<circle cx="35.786437626904956" cy="50" r="1.4718625761429713" fill="#ffe8ff" />"
	<circle cx="27.81745930520228" cy="50" r="3.5533905932737633" fill="#015a6c" />"
	<circle cx="27.81745930520228" cy="52.08152801713079" r="1.4718625761429713" fill="#ffe8ff" />"
	<circle cx="27.81745930520228" cy="47.91847198286921" r="1.4718625761429713" fill="#ffe8ff" />"
	<circle cx="29.898987322333074" cy="50" r="1.4718625761429713" fill="#ffe8ff" />"
	<circle cx="25.735931288071487" cy="50" r="1.4718625761429713" fill="#ffe8ff" />"
	<circle cx="8.578643762690497" cy="50" r="8.578643762690497" fill="#49224d" />"
	<circle cx="8.578643762690497" cy="55.025253169416736" r="3.5533905932737633" fill="#015a6c" />"
	<circle cx="8.578643762690497" cy="57.10678118654752" r="1.4718625761429713" fill="#ffe8ff" />"
	<circle cx="8.578643762690497" cy="52.94372515228595" r="1.4718625761429713" fill="#ffe8ff" />"
	<circle cx="10.660171779821288" cy="55.025253169416736" r="1.4718625761429713" fill="#ffe8ff" />"
	<circle cx="6.4971157455597055" cy="55.025253169416736" r="1.4718625761429713" fill="#ffe8ff" />"
	<circle cx="8.578643762690497" cy="44.974746830583264" r="3.5533905932737633" fill="#015a6c" />"
	<circle cx="8.578643762690497" cy="47.05627484771405" r="1.4718625761429713" fill="#ffe8ff" />"
	<circle cx="8.578643762690497" cy="42.89321881345248" r="1.4718625761429713" fill="#ffe8ff" />"
	<circle cx="10.660171779821288" cy="44.974746830583264" r="1.4718625761429713" fill="#ffe8ff" />"
	<circle cx="6.4971157455597055" cy="44.974746830583264" r="1.4718625761429713" fill="#ffe8ff" />"
	<circle cx="13.603896932107231" cy="50" r="3.5533905932737633" fill="#015a6c" />"
	<circle cx="13.603896932107231" cy="52.08152801713079" r="1.4718625761429713" fill="#ffe8ff" />"
	<circle cx="13.603896932107231" cy="47.91847198286921" r="1.4718625761429713" fill="#ffe8ff" />"
	<circle cx="15.685424949238023" cy="50" r="1.4718625761429713" fill="#ffe8ff" />"
	<circle cx="11.52236891497644" cy="50" r="1.4718625761429713" fill="#ffe8ff" />"
	<circle cx="3.5533905932737633" cy="50" r="3.5533905932737633" fill="#015a6c" />"
	<circle cx="3.5533905932737633" cy="52.08152801713079" r="1.4718625761429713" fill="#ffe8ff" />"
	<circle cx="3.5533905932737633" cy="47.91847198286921" r="1.4718625761429713" fill="#ffe8ff" />"
	<circle cx="5.634918610404555" cy="50" r="1.4718625761429713" fill="#ffe8ff" />"
	<circle cx="1.4718625761429713" cy="50" r="1.4718625761429713" fill="#ffe8ff" />"
</svg>